<svg width="18" height="32" viewBox="0 0 18 32" fill="none" xmlns="http://www.w3.org/2000/svg">
<path d="M0 2C0 0.895431 0.895431 0 2 0H16C17.1046 0 18 0.895431 18 2V4H0V2Z" fill="#00A54E"/>
<path d="M0 4H18V8H0V4Z" fill="white"/>
<path d="M0 8H18V10C18 11.1046 17.1046 12 16 12H2C0.89543 12 0 11.1046 0 10V8Z" fill="#E11900"/>
<path d="M2.11282 25.3726H1.00238V20H2.11282V25.3726Z" fill="white"/>
<path d="M3.9456 25.3877C3.7654 25.3877 3.61198 25.3222 3.48535 25.1912C3.36359 25.0603 3.30271 24.9016 3.30271 24.7152C3.30271 24.5338 3.36359 24.3802 3.48535 24.2542C3.61198 24.1233 3.7654 24.0578 3.9456 24.0578C4.12093 24.0578 4.26948 24.1233 4.39124 24.2542C4.51787 24.3802 4.58118 24.5338 4.58118 24.7152C4.58118 24.9016 4.51787 25.0603 4.39124 25.1912C4.26948 25.3222 4.12093 25.3877 3.9456 25.3877Z" fill="white"/>
<path d="M7.61624 23.423H6.79802V25.3726H5.68027V20H7.67468C8.07405 20 8.41985 20.063 8.71207 20.1889C9.00429 20.3148 9.22589 20.4987 9.37687 20.7405C9.53272 20.9823 9.61065 21.2745 9.61065 21.6171C9.61065 21.8639 9.57412 22.083 9.50107 22.2745C9.43288 22.4659 9.32817 22.6347 9.18693 22.7808C9.05056 22.9218 8.87766 23.0402 8.66823 23.1359L9.79329 25.3197V25.3726H8.58787L7.61624 23.423ZM6.79802 22.5314H7.6966C7.86219 22.5314 8.00343 22.4986 8.12032 22.4332C8.24208 22.3677 8.33462 22.2745 8.39793 22.1536C8.46124 22.0276 8.4929 21.8815 8.4929 21.7153C8.4929 21.4584 8.42228 21.2594 8.28104 21.1183C8.1398 20.9723 7.93525 20.8992 7.66738 20.8992H6.79802V22.5314Z" fill="white"/>
<path d="M11.3154 25.3877C11.1351 25.3877 10.9817 25.3222 10.8551 25.1912C10.7333 25.0603 10.6725 24.9016 10.6725 24.7152C10.6725 24.5338 10.7333 24.3802 10.8551 24.2542C10.9817 24.1233 11.1351 24.0578 11.3154 24.0578C11.4907 24.0578 11.6392 24.1233 11.761 24.2542C11.8876 24.3802 11.9509 24.5338 11.9509 24.7152C11.9509 24.9016 11.8876 25.0603 11.761 25.1912C11.6392 25.3222 11.4907 25.3877 11.3154 25.3877Z" fill="white"/>
<path d="M2.11044 32H1V26.6274H2.11044V32Z" fill="white"/>
<path d="M5.00983 30.0505H4.19161V32H3.07386V26.6274H5.06828C5.46765 26.6274 5.81344 26.6904 6.10566 26.8163C6.39788 26.9423 6.61949 27.1261 6.77047 27.3679C6.92632 27.6097 7.00424 27.9019 7.00424 28.2445C7.00424 28.4913 6.96772 28.7105 6.89466 28.9019C6.82648 29.0933 6.72176 29.2621 6.58052 29.4082C6.44415 29.5492 6.27125 29.6676 6.06183 29.7633L7.18688 31.9471V32H5.98147L5.00983 30.0505ZM4.19161 29.1588H5.09019C5.25578 29.1588 5.39703 29.1261 5.51391 29.0606C5.63567 28.9951 5.72821 28.9019 5.79152 28.781C5.85484 28.655 5.8865 28.5089 5.8865 28.3427C5.8865 28.0858 5.81588 27.8868 5.67464 27.7458C5.53339 27.5997 5.32884 27.5266 5.06097 27.5266H4.19161V29.1588Z" fill="white"/>
<path d="M9.32261 26.6274H10.3819L12.3033 32H11.1052L10.7691 30.9194H8.95003L8.61398 32H7.41587L9.32261 26.6274ZM10.4988 30.0202L9.85592 27.9724L9.21303 30.0202H10.4988Z" fill="white"/>
<path d="M17 32H15.8896L13.8586 28.4485V32H12.7482V26.6274H13.8586L15.8896 30.1789V26.6274H17V32Z" fill="white"/>
</svg>
